<?xml version="1.0" standalone="no"?>
<!DOCTYPE svg PUBLIC "-//W3C//DTD SVG 20010904//EN"
 "http://www.w3.org/TR/2001/REC-SVG-20010904/DTD/svg10.dtd">
<svg version="1.0" xmlns="http://www.w3.org/2000/svg"
 width="500.000000pt" height="500.000000pt" viewBox="0 0 500.000000 500.000000"
 preserveAspectRatio="xMidYMid meet">

<g transform="translate(0.000000,500.000000) scale(0.100000,-0.100000)"
fill="#000000" stroke="none">
<path d="M2521 3179 c-7 -19 -39 -110 -71 -204 -90 -261 -128 -368 -144 -406
-13 -30 -15 -32 -21 -14 -4 11 -16 43 -27 70 -25 60 -72 195 -101 288 l-21 67
-53 0 c-29 0 -53 -2 -53 -4 0 -3 20 -58 44 -123 57 -155 140 -382 167 -460 20
-58 24 -63 51 -63 32 0 26 -12 93 175 94 264 114 315 129 337 9 12 16 34 17
48 0 22 3 20 18 -15 10 -22 41 -107 70 -190 105 -305 124 -350 153 -353 22 -3
28 3 42 40 22 62 81 226 123 343 32 92 53 145 90 233 l14 33 -62 -3 -62 -3
-14 -50 c-22 -76 -125 -369 -133 -378 -6 -7 -29 58 -106 288 -9 28 -29 86 -45
130 -15 44 -41 118 -57 164 l-29 84 -12 -34z"/>
<path d="M1810 2078 c0 -14 57 -139 64 -141 5 -1 15 14 21 33 l12 35 13 -37
c17 -47 27 -39 56 47 18 52 19 65 8 65 -8 0 -14 -5 -14 -10 0 -6 -7 -27 -16
-48 l-15 -37 -18 40 -18 40 -12 -38 c-15 -44 -27 -40 -41 13 -6 24 -17 40 -25
40 -8 0 -15 -1 -15 -2z"/>
<path d="M2043 2054 c-20 -20 -24 -31 -19 -56 9 -44 24 -58 60 -58 68 0 98 69
51 115 -31 32 -59 32 -92 -1z m71 -10 c19 -7 21 -55 4 -72 -19 -19 -45 -14
-62 10 -20 28 -20 33 0 52 16 17 33 20 58 10z"/>
<path d="M2210 2068 c-1 -7 -3 -39 -7 -70 -4 -49 -3 -58 11 -58 11 0 16 9 16
27 l0 27 35 -34 c35 -34 51 -24 18 12 -15 17 -15 19 1 37 29 31 -2 71 -55 71
-10 0 -19 -6 -19 -12z m60 -38 c0 -13 -7 -20 -20 -20 -13 0 -20 7 -20 20 0 13
7 20 20 20 13 0 20 -7 20 -20z"/>
<path d="M2350 2011 c0 -71 0 -71 28 -71 43 0 72 26 72 64 0 44 -18 65 -63 73
l-37 6 0 -72z m70 20 c16 -31 -5 -70 -37 -71 -9 0 -13 16 -13 45 0 38 3 45 20
45 10 0 24 -9 30 -19z"/>
<path d="M2505 2055 c-46 -45 -23 -115 38 -115 36 0 67 33 67 70 0 35 -31 70
-60 70 -12 0 -32 -11 -45 -25z m75 -25 c22 -42 -21 -88 -55 -60 -15 13 -20 61
-8 73 14 15 53 6 63 -13z"/>
<path d="M2660 2065 c-16 -20 -5 -50 25 -63 14 -6 25 -19 25 -28 0 -13 -7 -16
-34 -11 -26 4 -34 2 -30 -8 6 -16 40 -26 60 -18 8 3 19 14 25 24 8 16 4 25
-21 50 -29 30 -38 49 -22 49 4 0 13 -5 19 -11 8 -8 13 -7 18 1 16 26 -44 40
-65 15z"/>
<path d="M2770 2071 c0 -5 9 -13 20 -16 17 -5 20 -15 20 -61 0 -41 4 -54 15
-54 12 0 15 13 15 60 0 47 3 60 15 60 8 0 15 5 15 10 0 6 -22 10 -50 10 -27 0
-50 -4 -50 -9z"/>
<path d="M2930 2060 c-42 -42 -10 -120 50 -120 36 0 59 19 66 57 12 63 -71
108 -116 63z m76 -18 c32 -22 13 -82 -26 -82 -29 0 -54 43 -40 69 11 21 45 28
66 13z"/>
<path d="M3107 2073 c-11 -10 -8 -143 3 -143 6 0 10 15 10 33 l1 32 29 -34
c34 -40 62 -39 31 1 -18 23 -19 27 -6 38 8 7 15 21 15 31 0 31 -63 63 -83 42z
m48 -43 c0 -8 -8 -16 -17 -18 -13 -2 -18 3 -18 18 0 15 5 20 18 18 9 -2 17
-10 17 -18z"/>
<path d="M1995 1860 c65 -11 1015 -11 1080 0 28 4 -215 7 -540 7 -324 0 -567
-3 -540 -7z"/>
</g>
</svg>
