<?xml version="1.0" standalone="no"?>
<!DOCTYPE svg PUBLIC "-//W3C//DTD SVG 20010904//EN"
 "http://www.w3.org/TR/2001/REC-SVG-20010904/DTD/svg10.dtd">
<svg version="1.0" xmlns="http://www.w3.org/2000/svg"
 width="187.000000pt" height="199.000000pt" viewBox="0 0 187.000000 199.000000"
 preserveAspectRatio="xMidYMid meet">

<g transform="translate(0.000000,199.000000) scale(0.100000,-0.100000)"
fill="#000000" stroke="none">
<path d="M912 1530 c-5 -14 -24 -66 -40 -115 -102 -297 -180 -516 -186 -523
-3 -3 -7 -3 -9 -1 -6 9 -43 114 -96 271 l-56 167 -52 1 c-29 0 -53 -2 -53 -4
0 -3 20 -58 44 -123 57 -155 140 -382 167 -460 20 -58 24 -63 51 -63 32 0 26
-12 93 175 81 226 112 309 129 340 9 17 16 39 16 50 1 35 23 -17 84 -195 31
-91 73 -210 94 -265 34 -88 41 -100 64 -103 22 -3 28 3 42 40 22 62 81 226
123 343 32 92 53 145 90 233 l13 32 -58 0 -59 0 -46 -137 c-64 -193 -100 -297
-104 -302 -7 -9 -17 17 -117 310 -57 167 -109 315 -114 329 l-10 25 -10 -25z"/>
<path d="M216 393 c9 -21 20 -50 24 -65 16 -52 23 -54 41 -13 l18 40 10 -28
c6 -16 11 -33 11 -40 0 -23 19 10 44 76 17 46 21 67 13 67 -7 0 -19 -20 -26
-45 -7 -25 -16 -45 -20 -45 -3 0 -13 17 -22 38 l-16 37 -13 -42 c-7 -23 -16
-40 -20 -38 -4 2 -13 25 -20 50 -7 26 -19 45 -26 45 -12 0 -11 -7 2 -37z"/>
<path d="M449 420 c-28 -16 -43 -64 -28 -92 16 -30 28 -38 61 -38 30 0 68 40
68 72 0 24 -43 68 -67 68 -10 0 -25 -5 -34 -10z m71 -41 c14 -26 -11 -69 -40
-69 -39 0 -65 51 -38 78 20 20 66 15 78 -9z"/>
<path d="M600 360 c0 -38 4 -70 9 -70 4 0 6 11 3 25 -6 33 8 32 43 -5 34 -35
44 -33 19 5 -13 20 -14 29 -5 38 21 21 13 57 -15 67 -50 20 -54 15 -54 -60z
m60 19 c0 -12 -7 -19 -18 -19 -26 0 -33 10 -21 31 12 22 39 14 39 -12z"/>
<path d="M740 361 c0 -69 1 -71 25 -71 43 0 75 28 75 65 0 38 -23 62 -68 71
l-32 7 0 -72z m73 17 c15 -23 -6 -68 -33 -68 -17 0 -20 7 -20 46 0 41 2 45 21
42 12 -2 27 -11 32 -20z"/>
<path d="M895 405 c-30 -29 -32 -68 -5 -95 26 -26 64 -25 90 2 42 45 10 117
-53 118 -4 0 -19 -11 -32 -25z m82 -31 c3 -9 0 -27 -6 -40 -9 -20 -17 -25 -39
-22 -23 3 -28 8 -30 38 -4 42 20 65 50 49 10 -6 22 -17 25 -25z"/>
<path d="M1050 411 c-13 -26 -5 -46 26 -59 36 -17 32 -45 -6 -40 -19 3 -29 1
-27 -6 5 -16 46 -19 63 -6 23 20 17 43 -18 72 -30 24 -31 27 -14 34 12 5 21 3
24 -4 2 -7 8 -9 13 -6 14 8 -10 34 -32 34 -10 0 -23 -9 -29 -19z"/>
<path d="M1160 420 c0 -5 9 -10 20 -10 18 0 20 -7 20 -60 0 -47 3 -60 15 -60
12 0 15 13 15 60 0 48 3 60 16 60 8 0 12 5 9 10 -3 6 -26 10 -51 10 -24 0 -44
-4 -44 -10z"/>
<path d="M1326 409 c-33 -26 -34 -68 -2 -98 31 -29 73 -25 99 11 18 24 18 30
7 58 -22 52 -60 63 -104 29z m75 -20 c14 -14 18 -27 13 -42 -12 -39 -50 -49
-78 -21 -22 22 -20 50 6 68 29 21 34 20 59 -5z"/>
<path d="M1503 423 c-16 -6 -18 -133 -3 -133 6 0 10 12 10 28 l0 27 31 -32
c16 -18 35 -33 41 -33 6 0 2 10 -10 23 -26 28 -27 34 -7 53 20 20 19 30 -5 54
-20 20 -34 23 -57 13z m45 -40 c-5 -26 -38 -29 -38 -4 0 15 6 21 21 21 14 0
19 -5 17 -17z"/>
<path d="M390 209 c57 -10 986 -10 1060 1 30 4 -206 7 -525 7 -321 0 -560 -3
-535 -8z"/>
</g>
</svg>
